<svg xmlns="http://www.w3.org/2000/svg" xmlns:xlink="http://www.w3.org/1999/xlink" id="processonSvg1000" viewBox="46.999999999999716 197.0 1074.2500000000002 1065.0" width="1074.2500000000002" height="1065.0"><defs id="ProcessOnDefs1001"><marker id="ProcessOnMarker1021" markerUnits="userSpaceOnUse" orient="auto" markerWidth="16.23606797749979" markerHeight="10.550836550532098" viewBox="-1.0 -1.3763819204711736 16.23606797749979 10.550836550532098" refX="-1.0" refY="3.8990363547948754"><path id="ProcessOnPath1022" d="M12.0 3.8990363547948754L0.0 7.798072709589751V0.0Z" stroke="#323232" stroke-width="2.0" fill="#323232" transform="matrix(1.0,0.0,0.0,1.0,0.0,0.0)"/></marker><marker id="ProcessOnMarker1025" markerUnits="userSpaceOnUse" orient="auto" markerWidth="16.23606797749979" markerHeight="10.550836550532098" viewBox="-1.0 -1.3763819204711736 16.23606797749979 10.550836550532098" refX="-1.0" refY="3.8990363547948754"><path id="ProcessOnPath1026" d="M12.0 3.8990363547948754L0.0 7.798072709589751V0.0Z" stroke="#323232" stroke-width="2.0" fill="#323232" transform="matrix(1.0,0.0,0.0,1.0,0.0,0.0)"/></marker><marker id="ProcessOnMarker1038" markerUnits="userSpaceOnUse" orient="auto" markerWidth="16.23606797749979" markerHeight="10.550836550532098" viewBox="-1.0 -1.3763819204711736 16.23606797749979 10.550836550532098" refX="-1.0" refY="3.8990363547948754"><path id="ProcessOnPath1039" d="M12.0 3.8990363547948754L0.0 7.798072709589751V0.0Z" stroke="#323232" stroke-width="2.0" fill="#323232" transform="matrix(1.0,0.0,0.0,1.0,0.0,0.0)"/></marker><marker id="ProcessOnMarker1046" markerUnits="userSpaceOnUse" orient="auto" markerWidth="16.23606797749979" markerHeight="10.550836550532098" viewBox="-1.0 -1.3763819204711736 16.23606797749979 10.550836550532098" refX="-1.0" refY="3.8990363547948754"><path id="ProcessOnPath1047" d="M12.0 3.8990363547948754L0.0 7.798072709589751V0.0Z" stroke="#323232" stroke-width="2.0" fill="#323232" transform="matrix(1.0,0.0,0.0,1.0,0.0,0.0)"/></marker><marker id="ProcessOnMarker1071" markerUnits="userSpaceOnUse" orient="auto" markerWidth="16.23606797749979" markerHeight="10.550836550532098" viewBox="-1.0 -1.3763819204711736 16.23606797749979 10.550836550532098" refX="-1.0" refY="3.8990363547948754"><path id="ProcessOnPath1072" d="M12.0 3.8990363547948754L0.0 7.798072709589751V0.0Z" stroke="#323232" stroke-width="2.0" fill="#323232" transform="matrix(1.0,0.0,0.0,1.0,0.0,0.0)"/></marker><marker id="ProcessOnMarker1079" markerUnits="userSpaceOnUse" orient="auto" markerWidth="16.23606797749979" markerHeight="10.550836550532098" viewBox="-1.0 -1.3763819204711736 16.23606797749979 10.550836550532098" refX="-1.0" refY="3.8990363547948754"><path id="ProcessOnPath1080" d="M12.0 3.8990363547948754L0.0 7.798072709589751V0.0Z" stroke="#323232" stroke-width="2.0" fill="#323232" transform="matrix(1.0,0.0,0.0,1.0,0.0,0.0)"/></marker><marker id="ProcessOnMarker1090" markerUnits="userSpaceOnUse" orient="auto" markerWidth="16.23606797749979" markerHeight="10.550836550532098" viewBox="-1.0 -1.3763819204711736 16.23606797749979 10.550836550532098" refX="-1.0" refY="3.8990363547948754"><path id="ProcessOnPath1091" d="M12.0 3.8990363547948754L0.0 7.798072709589751V0.0Z" stroke="#323232" stroke-width="2.0" fill="#323232" transform="matrix(1.0,0.0,0.0,1.0,0.0,0.0)"/></marker><marker id="ProcessOnMarker1098" markerUnits="userSpaceOnUse" orient="auto" markerWidth="16.23606797749979" markerHeight="10.550836550532098" viewBox="-1.0 -1.3763819204711736 16.23606797749979 10.550836550532098" refX="-1.0" refY="3.8990363547948754"><path id="ProcessOnPath1099" d="M12.0 3.8990363547948754L0.0 7.798072709589751V0.0Z" stroke="#323232" stroke-width="2.0" fill="#323232" transform="matrix(1.0,0.0,0.0,1.0,0.0,0.0)"/></marker><marker id="ProcessOnMarker1111" markerUnits="userSpaceOnUse" orient="auto" markerWidth="16.23606797749979" markerHeight="10.550836550532098" viewBox="-1.0 -1.3763819204711736 16.23606797749979 10.550836550532098" refX="-1.0" refY="3.8990363547948754"><path id="ProcessOnPath1112" d="M12.0 3.8990363547948754L0.0 7.798072709589751V0.0Z" stroke="#323232" stroke-width="2.0" fill="#323232" transform="matrix(1.0,0.0,0.0,1.0,0.0,0.0)"/></marker><marker id="ProcessOnMarker1119" markerUnits="userSpaceOnUse" orient="auto" markerWidth="16.23606797749979" markerHeight="10.550836550532098" viewBox="-1.0 -1.3763819204711736 16.23606797749979 10.550836550532098" refX="-1.0" refY="3.8990363547948754"><path id="ProcessOnPath1120" d="M12.0 3.8990363547948754L0.0 7.798072709589751V0.0Z" stroke="#323232" stroke-width="2.0" fill="#323232" transform="matrix(1.0,0.0,0.0,1.0,0.0,0.0)"/></marker><marker id="ProcessOnMarker1135" markerUnits="userSpaceOnUse" orient="auto" markerWidth="16.23606797749979" markerHeight="10.550836550532098" viewBox="-1.0 -1.3763819204711736 16.23606797749979 10.550836550532098" refX="-1.0" refY="3.8990363547948754"><path id="ProcessOnPath1136" d="M12.0 3.8990363547948754L0.0 7.798072709589751V0.0Z" stroke="#323232" stroke-width="2.0" fill="#323232" transform="matrix(1.0,0.0,0.0,1.0,0.0,0.0)"/></marker><marker id="ProcessOnMarker1143" markerUnits="userSpaceOnUse" orient="auto" markerWidth="16.23606797749979" markerHeight="10.550836550532098" viewBox="-1.0 -1.3763819204711736 16.23606797749979 10.550836550532098" refX="-1.0" refY="3.8990363547948754"><path id="ProcessOnPath1144" d="M12.0 3.8990363547948754L0.0 7.798072709589751V0.0Z" stroke="#323232" stroke-width="2.0" fill="#323232" transform="matrix(1.0,0.0,0.0,1.0,0.0,0.0)"/></marker><marker id="ProcessOnMarker1160" markerUnits="userSpaceOnUse" orient="auto" markerWidth="16.23606797749979" markerHeight="10.550836550532098" viewBox="-1.0 -1.3763819204711736 16.23606797749979 10.550836550532098" refX="-1.0" refY="3.8990363547948754"><path id="ProcessOnPath1161" d="M12.0 3.8990363547948754L0.0 7.798072709589751V0.0Z" stroke="#323232" stroke-width="2.0" fill="#323232" transform="matrix(1.0,0.0,0.0,1.0,0.0,0.0)"/></marker><marker id="ProcessOnMarker1168" markerUnits="userSpaceOnUse" orient="auto" markerWidth="16.23606797749979" markerHeight="10.550836550532098" viewBox="-1.0 -1.3763819204711736 16.23606797749979 10.550836550532098" refX="-1.0" refY="3.8990363547948754"><path id="ProcessOnPath1169" d="M12.0 3.8990363547948754L0.0 7.798072709589751V0.0Z" stroke="#323232" stroke-width="2.0" fill="#323232" transform="matrix(1.0,0.0,0.0,1.0,0.0,0.0)"/></marker><marker id="ProcessOnMarker1197" markerUnits="userSpaceOnUse" orient="auto" markerWidth="16.23606797749979" markerHeight="10.550836550532098" viewBox="-1.0 -1.3763819204711736 16.23606797749979 10.550836550532098" refX="-1.0" refY="3.8990363547948754"><path id="ProcessOnPath1198" d="M12.0 3.8990363547948754L0.0 7.798072709589751V0.0Z" stroke="#323232" stroke-width="2.0" fill="#323232" transform="matrix(1.0,0.0,0.0,1.0,0.0,0.0)"/></marker><marker id="ProcessOnMarker1201" markerUnits="userSpaceOnUse" orient="auto" markerWidth="16.23606797749979" markerHeight="10.550836550532098" viewBox="-1.0 -1.3763819204711736 16.23606797749979 10.550836550532098" refX="-1.0" refY="3.8990363547948754"><path id="ProcessOnPath1202" d="M12.0 3.8990363547948754L0.0 7.798072709589751V0.0Z" stroke="#323232" stroke-width="2.0" fill="#323232" transform="matrix(1.0,0.0,0.0,1.0,0.0,0.0)"/></marker><marker id="ProcessOnMarker1205" markerUnits="userSpaceOnUse" orient="auto" markerWidth="16.23606797749979" markerHeight="10.550836550532098" viewBox="-1.0 -1.3763819204711736 16.23606797749979 10.550836550532098" refX="-1.0" refY="3.8990363547948754"><path id="ProcessOnPath1206" d="M12.0 3.8990363547948754L0.0 7.798072709589751V0.0Z" stroke="#323232" stroke-width="2.0" fill="#323232" transform="matrix(1.0,0.0,0.0,1.0,0.0,0.0)"/></marker><marker id="ProcessOnMarker1218" markerUnits="userSpaceOnUse" orient="auto" markerWidth="16.23606797749979" markerHeight="10.550836550532098" viewBox="-1.0 -1.3763819204711736 16.23606797749979 10.550836550532098" refX="-1.0" refY="3.8990363547948754"><path id="ProcessOnPath1219" d="M12.0 3.8990363547948754L0.0 7.798072709589751V0.0Z" stroke="#323232" stroke-width="2.0" fill="#323232" transform="matrix(1.0,0.0,0.0,1.0,0.0,0.0)"/></marker><marker id="ProcessOnMarker1222" markerUnits="userSpaceOnUse" orient="auto" markerWidth="16.23606797749979" markerHeight="10.550836550532098" viewBox="-1.0 -1.3763819204711736 16.23606797749979 10.550836550532098" refX="-1.0" refY="3.8990363547948754"><path id="ProcessOnPath1223" d="M12.0 3.8990363547948754L0.0 7.798072709589751V0.0Z" stroke="#323232" stroke-width="2.0" fill="#323232" transform="matrix(1.0,0.0,0.0,1.0,0.0,0.0)"/></marker><marker id="ProcessOnMarker1245" markerUnits="userSpaceOnUse" orient="auto" markerWidth="16.23606797749979" markerHeight="10.550836550532098" viewBox="-1.0 -1.3763819204711736 16.23606797749979 10.550836550532098" refX="-1.0" refY="3.8990363547948754"><path id="ProcessOnPath1246" d="M12.0 3.8990363547948754L0.0 7.798072709589751V0.0Z" stroke="#323232" stroke-width="2.0" fill="#323232" transform="matrix(1.0,0.0,0.0,1.0,0.0,0.0)"/></marker><marker id="ProcessOnMarker1256" markerUnits="userSpaceOnUse" orient="auto" markerWidth="16.23606797749979" markerHeight="10.550836550532098" viewBox="-1.0 -1.3763819204711736 16.23606797749979 10.550836550532098" refX="-1.0" refY="3.8990363547948754"><path id="ProcessOnPath1257" d="M12.0 3.8990363547948754L0.0 7.798072709589751V0.0Z" stroke="#323232" stroke-width="2.0" fill="#323232" transform="matrix(1.0,0.0,0.0,1.0,0.0,0.0)"/></marker><marker id="ProcessOnMarker1264" markerUnits="userSpaceOnUse" orient="auto" markerWidth="16.23606797749979" markerHeight="10.550836550532098" viewBox="-1.0 -1.3763819204711736 16.23606797749979 10.550836550532098" refX="-1.0" refY="3.8990363547948754"><path id="ProcessOnPath1265" d="M12.0 3.8990363547948754L0.0 7.798072709589751V0.0Z" stroke="#323232" stroke-width="2.0" fill="#323232" transform="matrix(1.0,0.0,0.0,1.0,0.0,0.0)"/></marker></defs><g id="ProcessOnG1002"><path id="ProcessOnPath1003" d="M46.999999999999716 197.0H1121.25V1262.0H46.99999999999977V197.0Z" fill="none"/><g id="ProcessOnG1004"><g id="ProcessOnG1005" transform="matrix(1.0,0.0,0.0,1.0,136.0,721.0)" opacity="1.0"><path id="ProcessOnPath1006" d="M0.0 0.0L843.0 0.0L843.0 521.0L0.0 521.0Z" stroke="#323232" stroke-width="2.0" stroke-dasharray="none" opacity="1.0" fill="#e6ffcc"/></g><g id="ProcessOnG1007" transform="matrix(1.0,0.0,0.0,1.0,553.0,217.0)" opacity="1.0"><path id="ProcessOnPath1008" d="M0.0 0.0L494.0 0.0L494.0 319.0L0.0 319.0Z" stroke="#323232" stroke-width="2.0" stroke-dasharray="none" opacity="1.0" fill="#ffffcc"/></g><g id="ProcessOnG1009" transform="matrix(1.0,0.0,0.0,1.0,74.25000000000057,217.0)" opacity="1.0"><path id="ProcessOnPath1010" d="M0.0 0.0L459.49999999999943 0.0L459.49999999999943 319.0L0.0 319.0Z" stroke="#323232" stroke-width="2.0" stroke-dasharray="none" opacity="1.0" fill="#ffe6cc"/></g><g id="ProcessOnG1011" transform="matrix(1.0,0.0,0.0,1.0,268.9999999999997,429.0)" opacity="1.0"><path id="ProcessOnPath1012" d="M0.0 4.0Q0.0 0.0 4.0 0.0L96.0 0.0Q100.0 0.0 100.0 4.0L100.0 66.0Q100.0 70.0 96.0 70.0L4.0 70.0Q0.0 70.0 0.0 66.0Z" stroke="#323232" stroke-width="2.0" stroke-dasharray="none" opacity="1.0" fill="#66ffff"/><g id="ProcessOnG1013" transform="matrix(1.0,0.0,0.0,1.0,10.0,26.875)"><text id="ProcessOnText1014" fill="#000000" font-weight="normal" font-style="normal" text-decoration="blink" font-family="微软雅黑" text-anchor="middle" font-size="13" x="40.0" y="13.325">Namenode</text></g></g><g id="ProcessOnG1015" transform="matrix(1.0,0.0,0.0,1.0,278.4999999999999,952.0)" opacity="1.0"><path id="ProcessOnPath1016" d="M0.0 22.0C0.0 -7.333333333333333 85.0 -7.333333333333333 85.0 22.0C85.0 51.333333333333336 0.0 51.333333333333336 0.0 22.0Z" stroke="#323232" stroke-width="2.0" stroke-dasharray="none" opacity="1.0" fill="#ff3333"/><g id="ProcessOnG1017" transform="matrix(1.0,0.0,0.0,1.0,10.0,13.875)"><text id="ProcessOnText1018" fill="#000000" font-weight="normal" font-style="normal" text-decoration="blink" font-family="微软雅黑" text-anchor="middle" font-size="13" x="32.5" y="13.325">Client</text></g></g><g id="ProcessOnG1019"><path id="ProcessOnPath1020" d="M276.34729635533387 498.0303844939756C257.5366795821777 604.7106934153721 262.0 672.0 270.91948694386593 753.6731375399435" stroke="#323232" stroke-width="2.0" stroke-dasharray="none" fill="none" marker-end="url(#ProcessOnMarker1021)"/></g><g id="ProcessOnG1023"><path id="ProcessOnPath1024" d="M307.6100901992336 953.9733628866422C303.1234850944868 902.6912318775504 294.0 877.4780204184233 294.0 841.2360679774998" stroke="#323232" stroke-width="2.0" stroke-dasharray="none" fill="none" marker-end="url(#ProcessOnMarker1025)"/></g><g id="ProcessOnG1027" transform="matrix(1.0,0.0,0.0,1.0,155.0,891.0)" opacity="1.0"><path id="ProcessOnPath1028" d="M0.0 0.0L160.0 0.0L160.0 40.0L0.0 40.0Z" stroke="#323232" stroke-width="0.0" stroke-dasharray="none" opacity="1.0" fill="none"/><g id="ProcessOnG1029" transform="matrix(1.0,0.0,0.0,1.0,0.0,11.875)"><text id="ProcessOnText1030" fill="#000000" font-weight="normal" font-style="normal" text-decoration="blink" font-family="微软雅黑" text-anchor="middle" font-size="13" x="80.0" y="13.325">1) Create File: "A.txt"</text></g></g><g id="ProcessOnG1031" transform="matrix(1.0,0.0,0.0,1.0,268.9999999999997,762.0)" opacity="1.0"><path id="ProcessOnPath1032" d="M0.0 8.0Q45.75 -8.0 91.5 8.0L91.5 64.0L0.0 64.0L0.0 8.0Z" stroke="#323232" stroke-width="2.0" stroke-dasharray="none" opacity="1.0" fill="#80ff00"/><g id="ProcessOnG1033" transform="matrix(1.0,0.0,0.0,1.0,10.0,15.75)"><text id="ProcessOnText1034" fill="#000000" font-weight="normal" font-style="normal" text-decoration="blink" font-family="微软雅黑" text-anchor="middle" font-size="13" x="35.75" y="13.325">Namenode</text><text id="ProcessOnText1035" fill="#000000" font-weight="normal" font-style="normal" text-decoration="blink" font-family="微软雅黑" text-anchor="middle" font-size="13" x="35.75" y="29.575">Stub</text></g></g><g id="ProcessOnG1036"><path id="ProcessOnPath1037" d="M268.9999999999997 794.0C136.99999999999972 794.0 136.99999999999972 464.0 253.76393202249992 464.0" stroke="#323232" stroke-width="2.0" stroke-dasharray="none" fill="none" marker-end="url(#ProcessOnMarker1038)"/></g><g id="ProcessOnG1040" transform="matrix(1.0,0.0,0.0,1.0,66.99999999999972,616.0)" opacity="1.0"><path id="ProcessOnPath1041" d="M0.0 0.0L160.0 0.0L160.0 40.0L0.0 40.0Z" stroke="#323232" stroke-width="0.0" stroke-dasharray="none" opacity="1.0" fill="none"/><g id="ProcessOnG1042" transform="matrix(1.0,0.0,0.0,1.0,0.0,11.875)"><text id="ProcessOnText1043" fill="#000000" font-weight="normal" font-style="normal" text-decoration="blink" font-family="微软雅黑" text-anchor="middle" font-size="13" x="80.0" y="13.325">2) Create File: "A.txt"</text></g></g><g id="ProcessOnG1044"><path id="ProcessOnPath1045" d="M335.0 826.0C335.0 876.7825772047512 340.95006110050053 902.912963015881 334.77747455076764 937.9194408953982" stroke="#323232" stroke-width="2.0" stroke-dasharray="none" fill="none" marker-end="url(#ProcessOnMarker1046)"/></g><g id="ProcessOnG1048" transform="matrix(1.0,0.0,0.0,1.0,290.49999999999983,359.0)" opacity="1.0"><path id="ProcessOnPath1049" d="M0.0 28.0Q0.0 0.0 28.0 0.0L33.6 0.0Q61.6 0.0 61.6 28.0L61.6 56.0L70.0 56.0L52.85 70.0L35.7 56.0L44.1 56.0L44.1 28.0Q44.1 17.5 33.6 17.5L28.0 17.5Q17.5 17.5 17.5 28.0L17.5 70.0L0.0 70.0L0.0 28.0Z" stroke="#323232" stroke-width="2.0" stroke-dasharray="none" opacity="1.0" fill="#ff3333"/><path id="ProcessOnPath1050" d="M0.0 0.0L70.0 0.0L70.0 70.0L0.0 70.0Z" stroke="#323232" stroke-width="0.0" stroke-dasharray="none" opacity="1.0" fill="none"/></g><g id="ProcessOnG1051" transform="matrix(1.0,0.0,0.0,1.0,230.0,331.0)" opacity="1.0"><path id="ProcessOnPath1052" d="M0.0 0.0L181.9999999999999 0.0L181.9999999999999 35.0L0.0 35.0Z" stroke="#323232" stroke-width="0.0" stroke-dasharray="none" opacity="1.0" fill="none"/><g id="ProcessOnG1053" transform="matrix(1.0,0.0,0.0,1.0,0.0,9.375)"><text id="ProcessOnText1054" fill="#000000" font-weight="normal" font-style="normal" text-decoration="blink" font-family="微软雅黑" text-anchor="middle" font-size="13" x="90.99999999999994" y="13.325">3） Check command legality</text></g></g><g id="ProcessOnG1055" transform="matrix(1.0,0.0,0.0,1.0,157.99999999999983,566.0)" opacity="1.0"><path id="ProcessOnPath1056" d="M0.0 0.0L244.00000000000023 0.0L244.00000000000023 32.0L0.0 32.0Z" stroke="#323232" stroke-width="0.0" stroke-dasharray="none" opacity="1.0" fill="none"/><g id="ProcessOnG1057" transform="matrix(1.0,0.0,0.0,1.0,0.0,-0.25)"><text id="ProcessOnText1058" fill="#000000" font-weight="normal" font-style="normal" text-decoration="blink" font-family="微软雅黑" text-anchor="middle" font-size="13" x="122.00000000000011" y="13.325">4) Return SDFSFileChannel </text><text id="ProcessOnText1059" fill="#000000" font-weight="normal" font-style="normal" text-decoration="blink" font-family="微软雅黑" text-anchor="middle" font-size="13" x="122.00000000000011" y="29.575">for "A.txt"</text></g></g><g id="ProcessOnG1060" transform="matrix(1.0,0.0,0.0,1.0,318.49999999999966,891.0)" opacity="1.0"><path id="ProcessOnPath1061" d="M0.0 0.0L244.00000000000023 0.0L244.00000000000023 32.0L0.0 32.0Z" stroke="#323232" stroke-width="0.0" stroke-dasharray="none" opacity="1.0" fill="none"/><g id="ProcessOnG1062" transform="matrix(1.0,0.0,0.0,1.0,0.0,7.875)"><text id="ProcessOnText1063" fill="#000000" font-weight="normal" font-style="normal" text-decoration="blink" font-family="微软雅黑" text-anchor="middle" font-size="13" x="122.00000000000011" y="13.325">5) Return SDFSFileChannel for "A.txt"</text></g></g><g id="ProcessOnG1064" transform="matrix(1.0,0.0,0.0,1.0,624.0,908.0)" opacity="1.0"><path id="ProcessOnPath1065" d="M0.0 32.5L52.5 0.0L105.0 32.5L52.5 65.0Z" stroke="#323232" stroke-width="2.0" stroke-dasharray="none" opacity="1.0" fill="#ffffff"/><g id="ProcessOnG1066" transform="matrix(1.0,0.0,0.0,1.0,10.0,16.575000000000003)"><text id="ProcessOnText1067" fill="#000000" font-weight="normal" font-style="normal" text-decoration="blink" font-family="微软雅黑" text-anchor="middle" font-size="13" x="42.5" y="13.325">out of block </text><text id="ProcessOnText1068" fill="#000000" font-weight="normal" font-style="normal" text-decoration="blink" font-family="微软雅黑" text-anchor="middle" font-size="13" x="42.5" y="29.575">bound?</text></g></g><g id="ProcessOnG1069"><path id="ProcessOnPath1070" d="M363.4999999999999 974.0C452.60779988306285 974.0 478.3922001169369 1063.5 552.2639320225002 1063.5" stroke="#323232" stroke-width="2.0" stroke-dasharray="none" fill="none" marker-end="url(#ProcessOnMarker1071)"/></g><g id="ProcessOnG1073" transform="matrix(1.0,0.0,0.0,1.0,360.4999999999998,978.0)" opacity="1.0"><path id="ProcessOnPath1074" d="M0.0 0.0L244.00000000000023 0.0L244.00000000000023 32.0L0.0 32.0Z" stroke="#323232" stroke-width="0.0" stroke-dasharray="none" opacity="1.0" fill="none"/><g id="ProcessOnG1075" transform="matrix(1.0,0.0,0.0,1.0,0.0,7.875)"><text id="ProcessOnText1076" fill="#000000" font-weight="normal" font-style="normal" text-decoration="blink" font-family="微软雅黑" text-anchor="middle" font-size="13" x="122.00000000000011" y="13.325">6)  write data</text></g></g><g id="ProcessOnG1077"><path id="ProcessOnPath1078" d="M676.5 908.0C676.5 774.6149933463284 493.38500665367155 802.9999999999999 375.2360679774998 803.0" stroke="#323232" stroke-width="2.0" stroke-dasharray="none" fill="none" marker-end="url(#ProcessOnMarker1079)"/><g id="ProcessOnG1081" transform="matrix(1.0,0.0,0.0,1.0,570.1738859923144,797.355622504873)"><path id="ProcessOnPath1082" d="M0 0H21.0V16.25H0Z" fill="#fff" transform="matrix(1.0,0.0,0.0,1.0,-10.5,0.0)"/><text id="ProcessOnText1083" fill="#000000" font-weight="normal" font-style="normal" text-decoration="blink" font-family="微软雅黑" text-anchor="middle" font-size="13" x="0.0" y="13.325">Yes</text></g></g><g id="ProcessOnG1084" transform="matrix(1.0,0.0,0.0,1.0,457.0,766.0)" opacity="1.0"><path id="ProcessOnPath1085" d="M0.0 0.0L160.0 0.0L160.0 40.0L0.0 40.0Z" stroke="#323232" stroke-width="0.0" stroke-dasharray="none" opacity="1.0" fill="none"/><g id="ProcessOnG1086" transform="matrix(1.0,0.0,0.0,1.0,0.0,11.875)"><text id="ProcessOnText1087" fill="#000000" font-weight="normal" font-style="normal" text-decoration="blink" font-family="微软雅黑" text-anchor="middle" font-size="13" x="80.0" y="13.325">7.a1) add block</text></g></g><g id="ProcessOnG1088"><path id="ProcessOnPath1089" d="M360.4999999999998 794.0C492.5437806183992 794.0 501.0437806183992 464.0 384.23606797749954 464.0" stroke="#323232" stroke-width="2.0" stroke-dasharray="none" fill="none" marker-end="url(#ProcessOnMarker1090)"/></g><g id="ProcessOnG1092" transform="matrix(1.0,0.0,0.0,1.0,402.4999999999999,566.0)" opacity="1.0"><path id="ProcessOnPath1093" d="M0.0 0.0L160.0 0.0L160.0 40.0L0.0 40.0Z" stroke="#323232" stroke-width="0.0" stroke-dasharray="none" opacity="1.0" fill="none"/><g id="ProcessOnG1094" transform="matrix(1.0,0.0,0.0,1.0,0.0,11.875)"><text id="ProcessOnText1095" fill="#000000" font-weight="normal" font-style="normal" text-decoration="blink" font-family="微软雅黑" text-anchor="middle" font-size="13" x="80.0" y="13.325">7.a2) add block</text></g></g><g id="ProcessOnG1096"><path id="ProcessOnPath1097" d="M368.9999999999998 464.0C426.0 503.0 424.0 761.0 374.8333440660399 772.5910797341184" stroke="#323232" stroke-width="2.0" stroke-dasharray="none" fill="none" marker-end="url(#ProcessOnMarker1098)"/></g><g id="ProcessOnG1100" transform="matrix(1.0,0.0,0.0,1.0,300.0,616.0)" opacity="1.0"><path id="ProcessOnPath1101" d="M0.0 0.0L160.0 0.0L160.0 40.0L0.0 40.0Z" stroke="#323232" stroke-width="0.0" stroke-dasharray="none" opacity="1.0" fill="none"/><g id="ProcessOnG1102" transform="matrix(1.0,0.0,0.0,1.0,0.0,11.875)"><text id="ProcessOnText1103" fill="#000000" font-weight="normal" font-style="normal" text-decoration="blink" font-family="微软雅黑" text-anchor="middle" font-size="13" x="80.0" y="13.325">7.a3) return LocatedBlock</text></g></g><g id="ProcessOnG1104" transform="matrix(1.0,0.0,0.0,1.0,711.5,751.0)" opacity="1.0"><path id="ProcessOnPath1105" d="M0.0 8.0Q45.75 -8.0 91.5 8.0L91.5 64.0L0.0 64.0L0.0 8.0Z" stroke="#323232" stroke-width="2.0" stroke-dasharray="none" opacity="1.0" fill="#80ff00"/><g id="ProcessOnG1106" transform="matrix(1.0,0.0,0.0,1.0,10.0,15.75)"><text id="ProcessOnText1107" fill="#000000" font-weight="normal" font-style="normal" text-decoration="blink" font-family="微软雅黑" text-anchor="middle" font-size="13" x="35.75" y="13.325">Datanode</text><text id="ProcessOnText1108" fill="#000000" font-weight="normal" font-style="normal" text-decoration="blink" font-family="微软雅黑" text-anchor="middle" font-size="13" x="35.75" y="29.575">Stub</text></g></g><g id="ProcessOnG1109"><path id="ProcessOnPath1110" d="M360.0 813.0C500.9035130860832 813.0 633.5 894.0964869139168 633.5 1019.7639320225002" stroke="#323232" stroke-width="2.0" stroke-dasharray="none" fill="none" marker-end="url(#ProcessOnMarker1111)"/></g><g id="ProcessOnG1113" transform="matrix(1.0,0.0,0.0,1.0,464.5,844.0)" opacity="1.0"><path id="ProcessOnPath1114" d="M0.0 0.0L160.0 0.0L160.0 40.0L0.0 40.0Z" stroke="#323232" stroke-width="0.0" stroke-dasharray="none" opacity="1.0" fill="none"/><g id="ProcessOnG1115" transform="matrix(1.0,0.0,0.0,1.0,0.0,11.875)"><text id="ProcessOnText1116" fill="#000000" font-weight="normal" font-style="normal" text-decoration="blink" font-family="微软雅黑" text-anchor="middle" font-size="13" x="80.0" y="13.325">7.a4)return LocatedBlock</text></g></g><g id="ProcessOnG1117"><path id="ProcessOnPath1118" d="M729.0 940.5C780.4560977921956 940.5 757.25 866.4560977921956 757.25 830.2360679774998" stroke="#323232" stroke-width="2.0" stroke-dasharray="none" fill="none" marker-end="url(#ProcessOnMarker1119)"/><g id="ProcessOnG1121" transform="matrix(1.0,0.0,0.0,1.0,762.4210366720733,890.8255451692609)"><path id="ProcessOnPath1122" d="M0 0H19.0V16.25H0Z" fill="#fff" transform="matrix(1.0,0.0,0.0,1.0,-9.5,0.0)"/><text id="ProcessOnText1123" fill="#000000" font-weight="normal" font-style="normal" text-decoration="blink" font-family="微软雅黑" text-anchor="middle" font-size="13" x="0.0" y="13.325">No</text></g></g><g id="ProcessOnG1124" transform="matrix(1.0,0.0,0.0,1.0,671.5,839.0)" opacity="1.0"><path id="ProcessOnPath1125" d="M0.0 0.0L140.0 0.0L140.0 35.0L0.0 35.0Z" stroke="#323232" stroke-width="0.0" stroke-dasharray="none" opacity="1.0" fill="none"/><g id="ProcessOnG1126" transform="matrix(1.0,0.0,0.0,1.0,0.0,1.25)"><text id="ProcessOnText1127" fill="#000000" font-weight="normal" font-style="normal" text-decoration="blink" font-family="微软雅黑" text-anchor="middle" font-size="13" x="70.0" y="13.325">7.b1) read data from s</text><text id="ProcessOnText1128" fill="#000000" font-weight="normal" font-style="normal" text-decoration="blink" font-family="微软雅黑" text-anchor="middle" font-size="13" x="70.0" y="29.575">pecified LocatedBlock</text></g></g><g id="ProcessOnG1129" transform="matrix(1.0,0.0,0.0,1.0,669.7499999999998,438.0)" opacity="1.0"><path id="ProcessOnPath1130" d="M0.0 4.0Q0.0 0.0 4.0 0.0L96.0 0.0Q100.0 0.0 100.0 4.0L100.0 66.0Q100.0 70.0 96.0 70.0L4.0 70.0Q0.0 70.0 0.0 66.0Z" stroke="#323232" stroke-width="2.0" stroke-dasharray="none" opacity="1.0" fill="#66b2ff"/><g id="ProcessOnG1131" transform="matrix(1.0,0.0,0.0,1.0,10.0,26.875)"><text id="ProcessOnText1132" fill="#000000" font-weight="normal" font-style="normal" text-decoration="blink" font-family="微软雅黑" text-anchor="middle" font-size="13" x="40.0" y="13.325">Datanode</text></g></g><g id="ProcessOnG1133"><path id="ProcessOnPath1134" d="M784.6527036446662 753.9696155060244C842.0 660.0 888.7516350633813 455.0 784.2360679774998 455.0" stroke="#323232" stroke-width="2.0" stroke-dasharray="none" fill="none" marker-end="url(#ProcessOnMarker1135)"/></g><g id="ProcessOnG1137" transform="matrix(1.0,0.0,0.0,1.0,567.5,1035.0)" opacity="1.0"><path id="ProcessOnPath1138" d="M11.969999999999999 0.0L120.03 0.0L132.0 28.5L120.03 57.0L11.969999999999999 57.0L0.0 28.5L11.969999999999999 0.0Z" stroke="#323232" stroke-width="2.0" stroke-dasharray="none" opacity="1.0" fill="#ffffcc"/><g id="ProcessOnG1139" transform="matrix(1.0,0.0,0.0,1.0,10.0,20.375)"><text id="ProcessOnText1140" fill="#000000" font-weight="normal" font-style="normal" text-decoration="blink" font-family="微软雅黑" text-anchor="middle" font-size="13" x="56.0" y="13.325">SDFSFileChannel</text></g></g><g id="ProcessOnG1141"><path id="ProcessOnPath1142" d="M685.1547634765186 1035.8126155740733L678.5796836392502 988.0934649227945" stroke="#323232" stroke-width="2.0" stroke-dasharray="none" fill="none" marker-end="url(#ProcessOnMarker1143)"/></g><g id="ProcessOnG1145" transform="matrix(1.0,0.0,0.0,1.0,731.5,935.5)" opacity="1.0"><path id="ProcessOnPath1146" d="M0.0 0.0L134.5 0.0L134.5 57.5L0.0 57.5Z" stroke="#323232" stroke-width="0.0" stroke-dasharray="none" opacity="1.0" fill="none"/><g id="ProcessOnG1147" transform="matrix(1.0,0.0,0.0,1.0,0.0,4.375)"><text id="ProcessOnText1148" fill="#000000" font-weight="normal" font-style="normal" text-decoration="blink" font-family="微软雅黑" text-anchor="middle" font-size="13" x="67.25" y="13.325">7.b4) return data of  </text><text id="ProcessOnText1149" fill="#000000" font-weight="normal" font-style="normal" text-decoration="blink" font-family="微软雅黑" text-anchor="middle" font-size="13" x="67.25" y="29.575">specified LocatedBloc</text><text id="ProcessOnText1150" fill="#000000" font-weight="normal" font-style="normal" text-decoration="blink" font-family="微软雅黑" text-anchor="middle" font-size="13" x="67.25" y="45.825">k</text></g></g><g id="ProcessOnG1151" transform="matrix(1.0,0.0,0.0,1.0,852.75,539.0)" opacity="1.0"><path id="ProcessOnPath1152" d="M0.0 0.0L248.5 0.0L248.5 77.0L0.0 77.0Z" stroke="#323232" stroke-width="0.0" stroke-dasharray="none" opacity="1.0" fill="none"/><g id="ProcessOnG1153" transform="matrix(1.0,0.0,0.0,1.0,0.0,6.0)"><text id="ProcessOnText1154" fill="#000000" font-weight="normal" font-style="normal" text-decoration="blink" font-family="微软雅黑" text-anchor="start" font-size="13" x="0.0" y="13.325">11) write data to </text><text id="ProcessOnText1155" fill="#000000" font-weight="normal" font-style="normal" text-decoration="blink" font-family="微软雅黑" text-anchor="start" font-size="13" x="0.0" y="29.575">ip:   LocatedBlock.inetAddress</text><text id="ProcessOnText1156" fill="#000000" font-weight="normal" font-style="normal" text-decoration="blink" font-family="微软雅黑" text-anchor="start" font-size="13" x="0.0" y="45.825">blockNum: LocatedBlcok.blockNumber</text><text id="ProcessOnText1157" fill="#000000" font-weight="normal" font-style="normal" text-decoration="blink" font-family="微软雅黑" text-anchor="start" font-size="13" x="0.0" y="62.075"></text></g></g><g id="ProcessOnG1158"><path id="ProcessOnPath1159" d="M769.7499999999998 473.0C881.0623533126488 473.0 757.25 639.6876466873509 757.25 735.7639320225002" stroke="#323232" stroke-width="2.0" stroke-dasharray="none" fill="none" marker-end="url(#ProcessOnMarker1160)"/></g><g id="ProcessOnG1162" transform="matrix(1.0,0.0,0.0,1.0,751.5,586.5)" opacity="1.0"><path id="ProcessOnPath1163" d="M0.0 0.0L117.5 0.0L117.5 90.5L0.0 90.5Z" stroke="#323232" stroke-width="0.0" stroke-dasharray="none" opacity="1.0" fill="none"/><g id="ProcessOnG1164" transform="matrix(1.0,0.0,0.0,1.0,0.0,37.125)"><text id="ProcessOnText1165" fill="#000000" font-weight="normal" font-style="normal" text-decoration="blink" font-family="微软雅黑" text-anchor="start" font-size="13" x="0.0" y="13.325">12) write success</text></g></g><g id="ProcessOnG1166"><path id="ProcessOnPath1167" d="M803.0 783.0C956.0 767.0 958.0 1144.0 708.915998545173 1078.0542113273475" stroke="#323232" stroke-width="2.0" stroke-dasharray="none" fill="none" marker-end="url(#ProcessOnMarker1168)"/></g><g id="ProcessOnG1170" transform="matrix(1.0,0.0,0.0,1.0,832.0,1026.0)" opacity="1.0"><path id="ProcessOnPath1171" d="M0.0 0.0L160.0 0.0L160.0 40.0L0.0 40.0Z" stroke="#323232" stroke-width="0.0" stroke-dasharray="none" opacity="1.0" fill="none"/><g id="ProcessOnG1172" transform="matrix(1.0,0.0,0.0,1.0,0.0,3.75)"><text id="ProcessOnText1173" fill="#000000" font-weight="normal" font-style="normal" text-decoration="blink" font-family="微软雅黑" text-anchor="middle" font-size="13" x="80.0" y="13.325">13) write success</text><text id="ProcessOnText1174" fill="#000000" font-weight="normal" font-style="normal" text-decoration="blink" font-family="微软雅黑" text-anchor="middle" font-size="13" x="80.0" y="29.575">no exception</text></g></g><g id="ProcessOnG1175" transform="matrix(1.0,0.0,0.0,1.0,604.5,232.0)" opacity="1.0"><path id="ProcessOnPath1176" d="M0.0 0.0L67.0 0.0L67.0 47.0L0.0 47.0Z" stroke="#323232" stroke-width="2.0" stroke-dasharray="none" opacity="1.0" fill="#99ff99"/><g id="ProcessOnG1177" transform="matrix(1.0,0.0,0.0,1.0,10.0,15.375)"><text id="ProcessOnText1178" fill="#000000" font-weight="normal" font-style="normal" text-decoration="blink" font-family="微软雅黑" text-anchor="middle" font-size="13" x="23.5" y="13.325">Block</text></g></g><g id="ProcessOnG1179" transform="matrix(1.0,0.0,0.0,1.0,624.5,252.0)" opacity="1.0"><path id="ProcessOnPath1180" d="M0.0 0.0L67.0 0.0L67.0 47.0L0.0 47.0Z" stroke="#323232" stroke-width="2.0" stroke-dasharray="none" opacity="1.0" fill="#99ff99"/><g id="ProcessOnG1181" transform="matrix(1.0,0.0,0.0,1.0,10.0,15.375)"><text id="ProcessOnText1182" fill="#000000" font-weight="normal" font-style="normal" text-decoration="blink" font-family="微软雅黑" text-anchor="middle" font-size="13" x="23.5" y="13.325">Block</text></g></g><g id="ProcessOnG1183" transform="matrix(1.0,0.0,0.0,1.0,644.5,272.0)" opacity="1.0"><path id="ProcessOnPath1184" d="M0.0 0.0L67.0 0.0L67.0 47.0L0.0 47.0Z" stroke="#323232" stroke-width="2.0" stroke-dasharray="none" opacity="1.0" fill="#99ff99"/><g id="ProcessOnG1185" transform="matrix(1.0,0.0,0.0,1.0,10.0,15.375)"><text id="ProcessOnText1186" fill="#000000" font-weight="normal" font-style="normal" text-decoration="blink" font-family="微软雅黑" text-anchor="middle" font-size="13" x="23.5" y="13.325">Block</text></g></g><g id="ProcessOnG1187" transform="matrix(1.0,0.0,0.0,1.0,664.5,292.0)" opacity="1.0"><path id="ProcessOnPath1188" d="M0.0 0.0L67.0 0.0L67.0 47.0L0.0 47.0Z" stroke="#323232" stroke-width="2.0" stroke-dasharray="none" opacity="1.0" fill="#99ff99"/><g id="ProcessOnG1189" transform="matrix(1.0,0.0,0.0,1.0,10.0,15.375)"><text id="ProcessOnText1190" fill="#000000" font-weight="normal" font-style="normal" text-decoration="blink" font-family="微软雅黑" text-anchor="middle" font-size="13" x="23.5" y="13.325">Block</text></g></g><g id="ProcessOnG1191" transform="matrix(1.0,0.0,0.0,1.0,684.5,312.0)" opacity="1.0"><path id="ProcessOnPath1192" d="M0.0 0.0L67.0 0.0L67.0 47.0L0.0 47.0Z" stroke="#323232" stroke-width="2.0" stroke-dasharray="none" opacity="1.0" fill="#99ff99"/><g id="ProcessOnG1193" transform="matrix(1.0,0.0,0.0,1.0,10.0,15.375)"><text id="ProcessOnText1194" fill="#000000" font-weight="normal" font-style="normal" text-decoration="blink" font-family="微软雅黑" text-anchor="middle" font-size="13" x="23.5" y="13.325">Block</text></g></g><g id="ProcessOnG1195"><path id="ProcessOnPath1196" d="M683.0 438.0C668.0 425.0 648.0 373.0 673.2086814789782 363.683588521067" stroke="#323232" stroke-width="2.0" stroke-dasharray="none" fill="none" marker-end="url(#ProcessOnMarker1197)"/></g><g id="ProcessOnG1199"><path id="ProcessOnPath1200" d="M748.0 358.2679491924311C763.9664647633479 385.92267737980785 752.0 406.0670704733042 752.0 422.7639320225002" stroke="#323232" stroke-width="2.0" stroke-dasharray="none" fill="none" marker-end="url(#ProcessOnMarker1201)"/></g><g id="ProcessOnG1203"><path id="ProcessOnPath1204" d="M590.0 1092.0C590.0 1206.2467505008349 293.0 1129.0 317.8612103066471 1010.9092510434259" stroke="#323232" stroke-width="2.0" stroke-dasharray="none" fill="none" marker-end="url(#ProcessOnMarker1205)"/></g><g id="ProcessOnG1207" transform="matrix(1.0,0.0,0.0,1.0,393.0,1104.0)" opacity="1.0"><path id="ProcessOnPath1208" d="M0.0 0.0L160.0 0.0L160.0 40.0L0.0 40.0Z" stroke="#323232" stroke-width="0.0" stroke-dasharray="none" opacity="1.0" fill="none"/><g id="ProcessOnG1209" transform="matrix(1.0,0.0,0.0,1.0,0.0,3.75)"><text id="ProcessOnText1210" fill="#000000" font-weight="normal" font-style="normal" text-decoration="blink" font-family="微软雅黑" text-anchor="middle" font-size="13" x="80.0" y="13.325">14) flush success</text><text id="ProcessOnText1211" fill="#000000" font-weight="normal" font-style="normal" text-decoration="blink" font-family="微软雅黑" text-anchor="middle" font-size="13" x="80.0" y="29.575">no exception</text></g></g><g id="ProcessOnG1212" transform="matrix(1.0,0.0,0.0,1.0,575.9999999999999,990.0)" opacity="1.0"><path id="ProcessOnPath1213" d="M0.0 0.0L244.00000000000023 0.0L244.00000000000023 32.0L0.0 32.0Z" stroke="#323232" stroke-width="0.0" stroke-dasharray="none" opacity="1.0" fill="none"/><g id="ProcessOnG1214" transform="matrix(1.0,0.0,0.0,1.0,0.0,7.875)"><text id="ProcessOnText1215" fill="#000000" font-weight="normal" font-style="normal" text-decoration="blink" font-family="微软雅黑" text-anchor="middle" font-size="13" x="122.00000000000011" y="13.325">7.0)  write data</text></g></g><g id="ProcessOnG1216"><path id="ProcessOnPath1217" d="M711.5 783.0C586.3804971237497 783.0 544.6304971237495 473.0 654.5139320225 473.0" stroke="#323232" stroke-width="2.0" stroke-dasharray="none" fill="none" marker-end="url(#ProcessOnMarker1218)"/></g><g id="ProcessOnG1220"><path id="ProcessOnPath1221" d="M670.0 489.0C623.0 504.0 661.0 736.0 698.8675117057232 758.2750068857196" stroke="#323232" stroke-width="2.0" stroke-dasharray="none" fill="none" marker-end="url(#ProcessOnMarker1222)"/></g><g id="ProcessOnG1224" transform="matrix(1.0,0.0,0.0,1.0,571.5,371.0)" opacity="1.0"><path id="ProcessOnPath1225" d="M0.0 0.0L160.0 0.0L160.0 40.0L0.0 40.0Z" stroke="#323232" stroke-width="0.0" stroke-dasharray="none" opacity="1.0" fill="none"/><g id="ProcessOnG1226" transform="matrix(1.0,0.0,0.0,1.0,0.0,11.875)"><text id="ProcessOnText1227" fill="#000000" font-weight="normal" font-style="normal" text-decoration="blink" font-family="微软雅黑" text-anchor="middle" font-size="13" x="80.0" y="13.325">write/read block</text></g></g><g id="ProcessOnG1228" transform="matrix(1.0,0.0,0.0,1.0,711.5,366.0)" opacity="1.0"><path id="ProcessOnPath1229" d="M0.0 0.0L160.0 0.0L160.0 40.0L0.0 40.0Z" stroke="#323232" stroke-width="0.0" stroke-dasharray="none" opacity="1.0" fill="none"/><g id="ProcessOnG1230" transform="matrix(1.0,0.0,0.0,1.0,0.0,11.875)"><text id="ProcessOnText1231" fill="#000000" font-weight="normal" font-style="normal" text-decoration="blink" font-family="微软雅黑" text-anchor="middle" font-size="13" x="80.0" y="13.325">return data/ write success</text></g></g><g id="ProcessOnG1232" transform="matrix(1.0,0.0,0.0,1.0,547.75,539.0)" opacity="1.0"><path id="ProcessOnPath1233" d="M0.0 0.0L248.5 0.0L248.5 77.0L0.0 77.0Z" stroke="#323232" stroke-width="0.0" stroke-dasharray="none" opacity="1.0" fill="none"/><g id="ProcessOnG1234" transform="matrix(1.0,0.0,0.0,1.0,0.0,6.0)"><text id="ProcessOnText1235" fill="#000000" font-weight="normal" font-style="normal" text-decoration="blink" font-family="微软雅黑" text-anchor="start" font-size="13" x="0.0" y="13.325">7.b2) read data from</text><text id="ProcessOnText1236" fill="#000000" font-weight="normal" font-style="normal" text-decoration="blink" font-family="微软雅黑" text-anchor="start" font-size="13" x="0.0" y="29.575">ip:   LocatedBlock.inetAddress</text><text id="ProcessOnText1237" fill="#000000" font-weight="normal" font-style="normal" text-decoration="blink" font-family="微软雅黑" text-anchor="start" font-size="13" x="0.0" y="45.825">blockNum: LocatedBlcok.blockNumber</text><text id="ProcessOnText1238" fill="#000000" font-weight="normal" font-style="normal" text-decoration="blink" font-family="微软雅黑" text-anchor="start" font-size="13" x="0.0" y="62.075"></text></g></g><g id="ProcessOnG1239" transform="matrix(1.0,0.0,0.0,1.0,608.5,597.5)" opacity="1.0"><path id="ProcessOnPath1240" d="M0.0 0.0L127.0 0.0L127.0 77.0L0.0 77.0Z" stroke="#323232" stroke-width="0.0" stroke-dasharray="none" opacity="1.0" fill="none"/><g id="ProcessOnG1241" transform="matrix(1.0,0.0,0.0,1.0,0.0,30.375)"><text id="ProcessOnText1242" fill="#000000" font-weight="normal" font-style="normal" text-decoration="blink" font-family="微软雅黑" text-anchor="start" font-size="13" x="0.0" y="13.325">7.b3) return data</text></g></g><g id="ProcessOnG1243"><path id="ProcessOnPath1244" d="M802.4288495612539 814.9358222275241C868.9263084659771 894.1844077756137 787.3212175710231 1005.8151398690582 707.3707203296079 1043.09666900603" stroke="#323232" stroke-width="2.0" stroke-dasharray="none" fill="none" marker-end="url(#ProcessOnMarker1245)"/></g><g id="ProcessOnG1247" transform="matrix(-1.0,1.2246467991473532E-16,-1.2246467991473532E-16,-1.0,678.5,1162.0)" opacity="1.0"><path id="ProcessOnPath1248" d="M0.0 28.0Q0.0 0.0 28.0 0.0L33.6 0.0Q61.6 0.0 61.6 28.0L61.6 56.0L70.0 56.0L52.85 70.0L35.7 56.0L44.1 56.0L44.1 28.0Q44.1 17.5 33.6 17.5L28.0 17.5Q17.5 17.5 17.5 28.0L17.5 70.0L0.0 70.0L0.0 28.0Z" stroke="#323232" stroke-width="2.0" stroke-dasharray="none" opacity="1.0" fill="#ff3333"/><path id="ProcessOnPath1249" d="M0.0 0.0L70.0 0.0L70.0 70.0L0.0 70.0Z" stroke="#323232" stroke-width="0.0" stroke-dasharray="none" opacity="1.0" fill="none"/></g><g id="ProcessOnG1250" transform="matrix(1.0,0.0,0.0,1.0,555.4999999999999,1155.0)" opacity="1.0"><path id="ProcessOnPath1251" d="M0.0 0.0L192.00000000000023 0.0L192.00000000000023 37.0L0.0 37.0Z" stroke="#323232" stroke-width="0.0" stroke-dasharray="none" opacity="1.0" fill="none"/><g id="ProcessOnG1252" transform="matrix(1.0,0.0,0.0,1.0,0.0,10.375)"><text id="ProcessOnText1253" fill="#000000" font-weight="normal" font-style="normal" text-decoration="blink" font-family="微软雅黑" text-anchor="middle" font-size="13" x="96.00000000000011" y="13.325">8)  write data to cache</text></g></g><g id="ProcessOnG1254"><path id="ProcessOnPath1255" d="M342.482361909795 993.0681483474218C368.5233797954778 1090.2545501775999 482.0912017506098 1119.360156127157 562.3209350764664 1090.1589212934302" stroke="#323232" stroke-width="2.0" stroke-dasharray="none" fill="none" marker-end="url(#ProcessOnMarker1256)"/></g><g id="ProcessOnG1258" transform="matrix(1.0,0.0,0.0,1.0,335.49999999999966,1039.0)" opacity="1.0"><path id="ProcessOnPath1259" d="M0.0 0.0L192.00000000000023 0.0L192.00000000000023 37.0L0.0 37.0Z" stroke="#323232" stroke-width="0.0" stroke-dasharray="none" opacity="1.0" fill="none"/><g id="ProcessOnG1260" transform="matrix(1.0,0.0,0.0,1.0,0.0,10.375)"><text id="ProcessOnText1261" fill="#000000" font-weight="normal" font-style="normal" text-decoration="blink" font-family="微软雅黑" text-anchor="middle" font-size="13" x="96.00000000000011" y="13.325">9)  flush data</text></g></g><g id="ProcessOnG1262"><path id="ProcessOnPath1263" d="M694.6558454907434 1074.041672167815C871.0 1090.0 921.244747702513 799.0 818.2360679774998 799.0" stroke="#323232" stroke-width="2.0" stroke-dasharray="none" fill="none" marker-end="url(#ProcessOnMarker1264)"/></g><g id="ProcessOnG1266" transform="matrix(1.0,0.0,0.0,1.0,794.0,891.0)" opacity="1.0"><path id="ProcessOnPath1267" d="M0.0 0.0L160.0 0.0L160.0 40.0L0.0 40.0Z" stroke="#323232" stroke-width="0.0" stroke-dasharray="none" opacity="1.0" fill="none"/><g id="ProcessOnG1268" transform="matrix(1.0,0.0,0.0,1.0,0.0,3.75)"><text id="ProcessOnText1269" fill="#000000" font-weight="normal" font-style="normal" text-decoration="blink" font-family="微软雅黑" text-anchor="middle" font-size="13" x="80.0" y="13.325">10) write data to Located</text><text id="ProcessOnText1270" fill="#000000" font-weight="normal" font-style="normal" text-decoration="blink" font-family="微软雅黑" text-anchor="middle" font-size="13" x="80.0" y="29.575">Block</text></g></g></g></g></svg>